<svg height="48" width="48" xmlns="http://www.w3.org/2000/svg"><path d="M14.35 43.95q-1.5 0-2.55-1.05-1.05-1.05-1.05-2.55 0-1.5 1.05-2.55 1.05-1.05 2.55-1.05 1.45 0 2.53 1.05t1.07 2.55q0 1.5-1.05 2.55-1.05 1.05-2.55 1.05zm20 0q-1.5 0-2.55-1.05-1.05-1.05-1.05-2.55 0-1.5 1.05-2.55 1.05-1.05 2.55-1.05 1.45 0 2.52 1.05t1.08 2.55q0 1.5-1.05 2.55-1.05 1.05-2.55 1.05zm-22.6-33 5.5 11.4h14.4l6.25-11.4zm-1.5-3H39.7q1.6 0 2.02.98.43.97-.27 2.17L34.7 23.25q-.5.85-1.4 1.48-.9.62-1.95.62H16.2l-2.8 5.2h24.55v3h-24.1q-2.1 0-3.02-1.4-.93-1.4.02-3.15l3.2-5.9L6.45 7h-3.9V4H8.4zm7 14.4h14.4z" style="fill:#fff"/></svg>